<mxfile host="app.diagrams.net" agent="Mozilla/5.0 (Macintosh; Intel Mac OS X 10_15_7) AppleWebKit/537.36 (KHTML, like Gecko) Chrome/127.0.0.0 Safari/537.36" version="24.7.7">
  <diagram name="Page-1" id="wv6WKy2qLsSiGkUbxDFS">
    <mxGraphModel dx="794" dy="1121" grid="1" gridSize="10" guides="1" tooltips="1" connect="1" arrows="1" fold="1" page="1" pageScale="1" pageWidth="850" pageHeight="1100" math="0" shadow="0">
      <root>
        <mxCell id="0" />
        <mxCell id="1" parent="0" />
        <mxCell id="0ORxSIhM3xG3qj0N88_3-5" value="" style="edgeStyle=orthogonalEdgeStyle;rounded=0;orthogonalLoop=1;jettySize=auto;html=1;" edge="1" parent="1" source="0ORxSIhM3xG3qj0N88_3-1" target="0ORxSIhM3xG3qj0N88_3-3">
          <mxGeometry relative="1" as="geometry" />
        </mxCell>
        <mxCell id="0ORxSIhM3xG3qj0N88_3-18" value="Request is made" style="edgeLabel;html=1;align=center;verticalAlign=middle;resizable=0;points=[];" vertex="1" connectable="0" parent="0ORxSIhM3xG3qj0N88_3-5">
          <mxGeometry x="-0.1579" y="3" relative="1" as="geometry">
            <mxPoint as="offset" />
          </mxGeometry>
        </mxCell>
        <mxCell id="0ORxSIhM3xG3qj0N88_3-1" value="Client" style="outlineConnect=0;dashed=0;verticalLabelPosition=bottom;verticalAlign=top;align=center;html=1;shape=mxgraph.aws3.management_console;fillColor=#D2D3D3;gradientColor=none;" vertex="1" parent="1">
          <mxGeometry x="428.5" y="160" width="63" height="63" as="geometry" />
        </mxCell>
        <mxCell id="0ORxSIhM3xG3qj0N88_3-2" value="AWS Cloud" style="sketch=0;outlineConnect=0;gradientColor=none;html=1;whiteSpace=wrap;fontSize=12;fontStyle=0;shape=mxgraph.aws4.group;grIcon=mxgraph.aws4.group_aws_cloud;strokeColor=#858B94;fillColor=none;verticalAlign=top;align=left;spacingLeft=30;fontColor=#858B94;dashed=0;" vertex="1" parent="1">
          <mxGeometry x="240" y="280" width="440" height="400" as="geometry" />
        </mxCell>
        <mxCell id="0ORxSIhM3xG3qj0N88_3-3" value="Route 53" style="sketch=0;points=[[0,0,0],[0.25,0,0],[0.5,0,0],[0.75,0,0],[1,0,0],[0,1,0],[0.25,1,0],[0.5,1,0],[0.75,1,0],[1,1,0],[0,0.25,0],[0,0.5,0],[0,0.75,0],[1,0.25,0],[1,0.5,0],[1,0.75,0]];outlineConnect=0;fontColor=#232F3E;fillColor=#8C4FFF;strokeColor=#ffffff;dashed=0;verticalLabelPosition=bottom;verticalAlign=top;align=center;html=1;fontSize=12;fontStyle=0;aspect=fixed;shape=mxgraph.aws4.resourceIcon;resIcon=mxgraph.aws4.route_53;" vertex="1" parent="1">
          <mxGeometry x="310" y="340" width="78" height="78" as="geometry" />
        </mxCell>
        <mxCell id="0ORxSIhM3xG3qj0N88_3-13" value="" style="edgeStyle=orthogonalEdgeStyle;rounded=0;orthogonalLoop=1;jettySize=auto;html=1;" edge="1" parent="1" source="0ORxSIhM3xG3qj0N88_3-6" target="0ORxSIhM3xG3qj0N88_3-8">
          <mxGeometry relative="1" as="geometry" />
        </mxCell>
        <mxCell id="0ORxSIhM3xG3qj0N88_3-16" value="" style="edgeStyle=orthogonalEdgeStyle;rounded=0;orthogonalLoop=1;jettySize=auto;html=1;" edge="1" parent="1" source="0ORxSIhM3xG3qj0N88_3-6" target="0ORxSIhM3xG3qj0N88_3-9">
          <mxGeometry relative="1" as="geometry" />
        </mxCell>
        <mxCell id="0ORxSIhM3xG3qj0N88_3-6" value="Cloudfront" style="outlineConnect=0;dashed=0;verticalLabelPosition=bottom;verticalAlign=top;align=center;html=1;shape=mxgraph.aws3.cloudfront;fillColor=#F58536;gradientColor=none;" vertex="1" parent="1">
          <mxGeometry x="421.75" y="457" width="76.5" height="93" as="geometry" />
        </mxCell>
        <mxCell id="0ORxSIhM3xG3qj0N88_3-15" value="" style="edgeStyle=orthogonalEdgeStyle;rounded=0;orthogonalLoop=1;jettySize=auto;html=1;" edge="1" parent="1" source="0ORxSIhM3xG3qj0N88_3-8" target="0ORxSIhM3xG3qj0N88_3-6">
          <mxGeometry relative="1" as="geometry" />
        </mxCell>
        <mxCell id="0ORxSIhM3xG3qj0N88_3-8" value="S3" style="outlineConnect=0;dashed=0;verticalLabelPosition=bottom;verticalAlign=top;align=center;html=1;shape=mxgraph.aws3.s3;fillColor=#E05243;gradientColor=none;" vertex="1" parent="1">
          <mxGeometry x="290" y="534.25" width="76.5" height="93" as="geometry" />
        </mxCell>
        <mxCell id="0ORxSIhM3xG3qj0N88_3-11" value="" style="edgeStyle=orthogonalEdgeStyle;rounded=0;orthogonalLoop=1;jettySize=auto;html=1;" edge="1" parent="1" source="0ORxSIhM3xG3qj0N88_3-9" target="0ORxSIhM3xG3qj0N88_3-6">
          <mxGeometry relative="1" as="geometry" />
        </mxCell>
        <mxCell id="0ORxSIhM3xG3qj0N88_3-9" value="Certificate Manager" style="outlineConnect=0;dashed=0;verticalLabelPosition=bottom;verticalAlign=top;align=center;html=1;shape=mxgraph.aws3.certificate_manager;fillColor=#759C3E;gradientColor=none;" vertex="1" parent="1">
          <mxGeometry x="560" y="472.75" width="76.5" height="61.5" as="geometry" />
        </mxCell>
        <mxCell id="0ORxSIhM3xG3qj0N88_3-14" value="AWS Account" style="points=[[0,0],[0.25,0],[0.5,0],[0.75,0],[1,0],[1,0.25],[1,0.5],[1,0.75],[1,1],[0.75,1],[0.5,1],[0.25,1],[0,1],[0,0.75],[0,0.5],[0,0.25]];outlineConnect=0;gradientColor=none;html=1;whiteSpace=wrap;fontSize=12;fontStyle=0;container=1;pointerEvents=0;collapsible=0;recursiveResize=0;shape=mxgraph.aws4.group;grIcon=mxgraph.aws4.group_account;strokeColor=#CD2264;fillColor=none;verticalAlign=top;align=left;spacingLeft=30;fontColor=#CD2264;dashed=0;" vertex="1" parent="1">
          <mxGeometry x="270" y="310" width="380" height="340" as="geometry" />
        </mxCell>
        <mxCell id="0ORxSIhM3xG3qj0N88_3-17" value="Deliver content" style="endArrow=classic;html=1;rounded=0;entryX=0.5;entryY=1;entryDx=0;entryDy=0;entryPerimeter=0;" edge="1" parent="1" source="0ORxSIhM3xG3qj0N88_3-6" target="0ORxSIhM3xG3qj0N88_3-1">
          <mxGeometry width="50" height="50" relative="1" as="geometry">
            <mxPoint x="498" y="450" as="sourcePoint" />
            <mxPoint x="430" y="550" as="targetPoint" />
            <Array as="points">
              <mxPoint x="490" y="340" />
            </Array>
          </mxGeometry>
        </mxCell>
        <mxCell id="0ORxSIhM3xG3qj0N88_3-22" value="" style="endArrow=classic;html=1;rounded=0;exitX=1;exitY=1;exitDx=0;exitDy=0;exitPerimeter=0;entryX=0.5;entryY=0;entryDx=0;entryDy=0;entryPerimeter=0;" edge="1" parent="1" source="0ORxSIhM3xG3qj0N88_3-3" target="0ORxSIhM3xG3qj0N88_3-6">
          <mxGeometry width="50" height="50" relative="1" as="geometry">
            <mxPoint x="380" y="600" as="sourcePoint" />
            <mxPoint x="430" y="550" as="targetPoint" />
          </mxGeometry>
        </mxCell>
      </root>
    </mxGraphModel>
  </diagram>
</mxfile>
